# xmcd
#
# Track frame offsets: 
#        150
#        12950
#        28261
#        41615
#        59932
#        77037
#        88255
#        103180
#        116909
#        131141
#        146310
#
# Disc length: 2172 seconds
#
# Revision: 0
# Processed by: cddbd v1.5.2PL0 Copyright (c) Steve Scherf et al.
# Submitted via: ExactAudioCopy v0.99pb5
#
DISCID=a2087a0b
DTITLE=Spoon, Rae - Love is a Hunter
DYEAR=2010
DGENRE=Folk/Rock
TTITLE0=Death by Elektro
TTITLE1=We Can't Be Lovers With These Guns On Each Other
TTITLE2=Love is a Hunter
TTITLE3=You Can Dance
TTITLE4=Lighthouse
TTITLE5=You Like All the Parties
TTITLE6=Joan
TTITLE7=dangerdangerdanger
TTITLE8=Monsters
TTITLE9=U bahn
TTITLE10=bethelightbethelightbethelight
EXTD=
EXTT0=
EXTT1=
EXTT2=
EXTT3=
EXTT4=
EXTT5=
EXTT6=
EXTT7=
EXTT8=
EXTT9=
EXTT10=
PLAYORDER=
